<svg width="525" height="512" viewBox="0 0 525 512" fill="none" xmlns="http://www.w3.org/2000/svg">
<g clip-path="url(#clip0_1_3)">
<path fill-rule="evenodd" clip-rule="evenodd" d="M59.6301 290.53L19.0001 272.47C13.3415 269.954 8.53444 265.851 5.16191 260.657C1.78938 255.463 -0.00372356 249.403 7.21812e-05 243.21V106C-0.00766367 102.845 0.606599 99.7202 1.80773 96.8032C3.00885 93.8861 4.77328 91.2345 7.00007 89L13.9615 82.0386C15.1789 80.8212 15.4807 78.9613 14.7107 77.4213L1.79007 51.58C0.611386 49.2272 -0.00155595 46.6316 7.21812e-05 44C7.21812e-05 40.8174 1.26435 37.7652 3.51479 35.5147C5.76523 33.2643 8.81747 32 12.0001 32H159.94C265.94 32 351.86 118 351.86 224V412C351.86 414.209 350.069 416 347.86 416H335.718C333.509 416 331.718 414.209 331.718 412V378.074C331.718 375.865 329.928 374.074 327.718 374.074H252.128C249.143 374.074 247.21 370.924 248.562 368.263L330.923 206.141C331.208 205.58 331.357 204.959 331.357 204.329V167C331.357 164.791 329.566 163 327.357 163H197.148C194.939 163 193.148 164.791 193.148 167V202.371C193.148 204.581 194.939 206.371 197.148 206.371H272.021C275.004 206.371 276.938 209.519 275.589 212.18L193.58 373.944C193.296 374.505 193.148 375.125 193.148 375.753V412C193.148 414.209 191.357 416 189.148 416H36.0001C33.7909 416 32.0001 414.209 32.0001 412V401.48C31.9959 386.626 36.1277 372.063 43.9325 359.424C51.7373 346.785 62.9069 336.569 76.1901 329.92L133.41 301.27C141.384 297.282 148.089 291.153 152.775 283.569C157.461 275.984 159.942 267.245 159.94 258.33V214.477C159.94 211.503 156.808 209.569 154.149 210.901L137.82 219.08C134.723 220.629 131.998 222.829 129.832 225.531C127.665 228.232 126.109 231.37 125.27 234.73L116.05 265.38C114.665 269.987 112.259 274.223 109.011 277.773C105.763 281.322 101.757 284.093 97.2901 285.88L84.5101 291C80.5418 292.587 76.2957 293.363 72.0225 293.283C67.7494 293.202 63.5356 292.266 59.6301 290.53ZM63.1115 131.371C59.8225 129.173 55.9557 128 52.0001 128C46.6957 128 41.6087 130.107 37.8579 133.858C34.1072 137.609 32.0001 142.696 32.0001 148C32.0001 151.956 33.1731 155.822 35.3707 159.111C37.5683 162.4 40.6919 164.964 44.3464 166.478C48.0009 167.991 52.0223 168.387 55.9019 167.616C59.7815 166.844 63.3452 164.939 66.1422 162.142C68.9393 159.345 70.8441 155.781 71.6158 151.902C72.3875 148.022 71.9914 144.001 70.4777 140.346C68.9639 136.692 66.4005 133.568 63.1115 131.371ZM15.5 423.5H509C513.243 423.5 517.313 425.186 520.314 428.186C523.314 431.187 525 435.257 525 439.5V471.5C525 475.743 523.314 479.813 520.314 482.814C517.313 485.814 513.243 487.5 509 487.5H15.5C11.2565 487.5 7.18687 485.814 4.18629 482.814C1.18571 479.813 -0.5 475.743 -0.5 471.5V439.5C-0.5 435.257 1.18571 431.187 4.18629 428.186C7.18687 425.186 11.2565 423.5 15.5 423.5Z" fill="white"/>
<path d="M364 416C361.791 416 360 414.209 360 412V167C360 164.791 361.791 163 364 163H405.567C407.776 163 409.567 164.791 409.567 167V268.533C409.567 269.134 410.054 269.621 410.655 269.621V269.621C411.092 269.621 411.487 269.36 411.657 268.958L455.567 165.438C456.194 163.96 457.644 163 459.25 163H501.499C504.384 163 506.32 165.961 505.163 168.604L455.479 282.149C455.04 283.15 455.031 284.288 455.453 285.296L507.828 410.456C508.931 413.091 506.995 416 504.138 416H457.889C456.24 416 454.76 414.988 454.162 413.451L412.473 306.361C412.248 305.783 411.691 305.403 411.071 305.403V305.403C410.24 305.403 409.567 306.076 409.567 306.907V412C409.567 414.209 407.776 416 405.567 416H364Z" fill="white"/>
</g>
<defs>
<clipPath id="clip0_1_3">
<rect width="525" height="512" fill="white"/>
</clipPath>
</defs>
</svg>
